<svg xmlns="http://www.w3.org/2000/svg" xmlns:xlink="http://www.w3.org/1999/xlink" width="500" zoomAndPan="magnify" viewBox="0 0 375 374.999991" height="500" preserveAspectRatio="xMidYMid meet" version="1.0"><defs><clipPath id="id1"><path d="M 28.390625 60.097656 L 337.390625 60.097656 L 337.390625 333.097656 L 28.390625 333.097656 Z M 28.390625 60.097656 " clip-rule="nonzero"/></clipPath><clipPath id="id2"><path d="M 37.5 106.894531 L 323.25 106.894531 L 323.25 234.394531 L 37.5 234.394531 Z M 37.5 106.894531 " clip-rule="nonzero"/></clipPath><clipPath id="id3"><path d="M 107.945312 95.820312 L 257.945312 95.820312 L 257.945312 245.820312 L 107.945312 245.820312 Z M 107.945312 95.820312 " clip-rule="nonzero"/></clipPath><clipPath id="id4"><path d="M 250.621094 95.820312 L 282.871094 95.820312 L 282.871094 128.070312 L 250.621094 128.070312 Z M 250.621094 95.820312 " clip-rule="nonzero"/></clipPath></defs><rect x="-37.5" width="450" fill="#ffffff" y="-37.499999" height="449.999989" fill-opacity="1"/><rect x="-37.5" width="450" fill="#ffffff" y="-37.499999" height="449.999989" fill-opacity="1"/><rect x="-37.5" width="450" fill="#ffffff" y="-37.499999" height="449.999989" fill-opacity="1"/><rect x="-37.5" width="450" fill="#ffffff" y="-37.499999" height="449.999989" fill-opacity="1"/><g clip-path="url(#id1)"><path fill="#df6576" d="M 337.238281 101.507812 L 337.238281 234.285156 C 337.238281 257.117188 319.441406 275.695312 297.5625 275.695312 L 238.71875 275.695312 L 185.246094 331.503906 C 184.289062 332.503906 182.988281 333.066406 181.628906 333.066406 C 180.273438 333.066406 178.972656 332.503906 178.011719 331.503906 L 124.535156 275.695312 L 68.207031 275.695312 C 46.328125 275.695312 28.53125 257.117188 28.53125 234.285156 L 28.53125 101.507812 C 28.53125 78.675781 46.328125 60.097656 68.207031 60.097656 L 297.5625 60.097656 C 319.441406 60.097656 337.238281 78.675781 337.238281 101.507812 Z M 337.238281 101.507812 " fill-opacity="1" fill-rule="nonzero"/><path fill="#df6576" d="M 297.5625 60.097656 L 68.207031 60.097656 C 46.328125 60.097656 28.53125 78.675781 28.53125 101.507812 L 28.53125 234.285156 C 28.53125 257.117188 46.328125 275.695312 68.207031 275.695312 L 124.535156 275.695312 L 178.011719 331.503906 C 178.972656 332.503906 180.273438 333.066406 181.628906 333.066406 C 182.988281 333.066406 184.289062 332.503906 185.246094 331.503906 L 238.71875 275.695312 L 297.5625 275.695312 C 319.441406 275.695312 337.238281 257.117188 337.238281 234.285156 L 337.238281 101.507812 C 337.238281 78.675781 319.441406 60.097656 297.5625 60.097656 Z M 182.910156 111.066406 C 199.949219 111.070312 213.808594 124.933594 213.804688 141.96875 C 213.800781 159.007812 199.933594 172.867188 182.894531 172.863281 C 165.855469 172.859375 151.996094 158.992188 152 141.957031 C 152.003906 124.917969 165.867188 111.0625 182.910156 111.066406 Z M 237.246094 215.476562 C 237.246094 217.519531 235.585938 219.179688 233.539062 219.179688 L 132.226562 219.15625 C 130.179688 219.15625 128.523438 217.496094 128.523438 215.449219 L 128.523438 212.511719 C 128.527344 193.414062 144.019531 177.933594 163.121094 177.9375 L 202.664062 177.945312 C 221.769531 177.949219 237.25 193.4375 237.246094 212.539062 Z M 237.246094 215.476562 " fill-opacity="1" fill-rule="nonzero"/></g><path fill="#feffff" d="M 237.246094 212.539062 L 237.246094 215.476562 C 237.246094 217.519531 235.585938 219.179688 233.539062 219.179688 L 132.226562 219.15625 C 130.179688 219.15625 128.523438 217.496094 128.523438 215.449219 L 128.523438 212.511719 C 128.527344 193.414062 144.019531 177.933594 163.121094 177.9375 L 202.664062 177.945312 C 221.769531 177.949219 237.25 193.4375 237.246094 212.539062 Z M 182.894531 172.863281 C 199.933594 172.867188 213.800781 159.007812 213.804688 141.96875 C 213.808594 124.933594 199.949219 111.070312 182.910156 111.066406 C 165.867188 111.0625 152.003906 124.917969 152 141.957031 C 151.996094 158.992188 165.855469 172.859375 182.894531 172.863281 Z M 182.894531 172.863281 " fill-opacity="1" fill-rule="nonzero"/><g clip-path="url(#id2)"><path fill="#df6576" d="M 37.5 106.894531 L 323.25 106.894531 L 323.25 234.394531 L 37.5 234.394531 Z M 37.5 106.894531 " fill-opacity="1" fill-rule="nonzero"/></g><path fill="#ffffff" d="M 182.945312 155.179688 C 174.324219 155.179688 167.304688 162.195312 167.304688 170.820312 C 167.304688 179.441406 174.324219 186.457031 182.945312 186.457031 C 191.570312 186.457031 198.585938 179.441406 198.585938 170.820312 C 198.585938 162.195312 191.570312 155.179688 182.945312 155.179688 Z M 182.945312 155.179688 " fill-opacity="1" fill-rule="nonzero"/><path fill="#ffffff" d="M 205.445312 146.296875 C 204.328125 146.296875 203.421875 147.203125 203.421875 148.320312 C 203.421875 149.433594 204.328125 150.339844 205.445312 150.339844 C 206.558594 150.339844 207.46875 149.433594 207.46875 148.320312 C 207.46875 147.203125 206.558594 146.296875 205.445312 146.296875 Z M 205.445312 146.296875 " fill-opacity="1" fill-rule="nonzero"/><g clip-path="url(#id3)"><path fill="#ffffff" d="M 182.945312 95.820312 C 141.59375 95.820312 107.945312 129.46875 107.945312 170.820312 C 107.945312 212.167969 141.59375 245.820312 182.945312 245.820312 C 224.296875 245.820312 257.945312 212.167969 257.945312 170.820312 C 257.945312 129.46875 224.296875 95.820312 182.945312 95.820312 Z M 225.800781 184.316406 C 225.800781 200.503906 212.632812 213.675781 196.445312 213.675781 L 169.445312 213.675781 C 153.257812 213.675781 140.089844 200.503906 140.089844 184.316406 L 140.089844 157.320312 C 140.089844 141.132812 153.257812 127.960938 169.445312 127.960938 L 196.445312 127.960938 C 212.632812 127.960938 225.800781 141.132812 225.800781 157.320312 Z M 225.800781 184.316406 " fill-opacity="1" fill-rule="nonzero"/></g><path fill="#ffffff" d="M 196.445312 134.101562 L 169.445312 134.101562 C 156.644531 134.101562 146.226562 144.515625 146.226562 157.320312 L 146.226562 184.316406 C 146.226562 197.121094 156.644531 207.535156 169.445312 207.535156 L 196.445312 207.535156 C 209.246094 207.535156 219.664062 197.121094 219.664062 184.316406 L 219.664062 157.320312 C 219.664062 144.515625 209.246094 134.101562 196.445312 134.101562 Z M 182.945312 192.597656 C 170.9375 192.597656 161.167969 182.828125 161.167969 170.820312 C 161.167969 158.808594 170.9375 149.039062 182.945312 149.039062 C 194.953125 149.039062 204.726562 158.808594 204.726562 170.820312 C 204.726562 182.828125 194.953125 192.597656 182.945312 192.597656 Z M 205.445312 156.480469 C 200.945312 156.480469 197.28125 152.820312 197.28125 148.320312 C 197.28125 143.820312 200.945312 140.15625 205.445312 140.15625 C 209.945312 140.15625 213.605469 143.820312 213.605469 148.320312 C 213.605469 152.820312 209.945312 156.480469 205.445312 156.480469 Z M 205.445312 156.480469 " fill-opacity="1" fill-rule="nonzero"/><g clip-path="url(#id4)"><path fill="#ffffff" d="M 266.738281 95.820312 C 266.746094 95.820312 266.753906 95.820312 266.761719 95.820312 C 267.5625 95.824219 268.289062 96.152344 268.820312 96.679688 C 269.347656 97.210938 269.675781 97.941406 269.679688 98.75 L 269.679688 109.011719 L 279.941406 109.011719 C 280.746094 109.011719 281.480469 109.339844 282.011719 109.871094 C 282.539062 110.402344 282.871094 111.128906 282.871094 111.933594 C 282.871094 111.941406 282.871094 111.949219 282.871094 111.957031 C 282.867188 112.757812 282.539062 113.484375 282.011719 114.015625 C 281.480469 114.542969 280.75 114.875 279.941406 114.875 L 269.679688 114.875 L 269.679688 125.136719 C 269.679688 125.941406 269.351562 126.675781 268.820312 127.207031 C 268.289062 127.734375 267.5625 128.066406 266.757812 128.066406 C 266.75 128.070312 266.742188 128.070312 266.734375 128.066406 C 265.933594 128.066406 265.203125 127.734375 264.675781 127.207031 C 264.148438 126.675781 263.816406 125.945312 263.816406 125.136719 L 263.816406 114.875 L 253.554688 114.875 C 252.75 114.875 252.015625 114.546875 251.484375 114.015625 C 250.957031 113.484375 250.625 112.757812 250.625 111.953125 C 250.621094 111.945312 250.621094 111.9375 250.625 111.929688 C 250.625 111.128906 250.957031 110.398438 251.484375 109.871094 C 252.015625 109.34375 252.746094 109.011719 253.554688 109.011719 L 263.816406 109.011719 L 263.816406 98.75 C 263.816406 97.945312 264.144531 97.210938 264.675781 96.679688 C 265.207031 96.152344 265.933594 95.820312 266.738281 95.820312 " fill-opacity="1" fill-rule="nonzero"/></g></svg>